<svg width="190" height="31" viewBox="0 0 190 31" fill="none" xmlns="http://www.w3.org/2000/svg">
<path d="M0 2.86525V9.6182C0 11.6749 2.50611 12.7719 4.03763 11.3322L11.3471 4.5792C12.9483 3.1052 11.904 0.5 9.71119 0.5H2.40169C1.07902 0.5 0 1.56265 0 2.86525Z" fill="white"/>
<path d="M34.5982 0.5H27.2887C25.1307 0.5 24.0517 3.1052 25.6528 4.5792L32.9623 11.3322C34.4938 12.7376 36.9999 11.6749 36.9999 9.6182V2.86525C36.9999 1.56265 35.9209 0.5 34.5982 0.5Z" fill="white"/>
<path d="M20.1533 16.9881L32.9624 28.8487C34.4939 30.2541 37 29.1914 37 27.1347V20.3132C37 19.6619 36.7215 19.0449 36.2342 18.5992L20.1533 3.6879C19.2135 2.83092 17.7865 2.83092 16.8467 3.6879L0.765757 18.5992C0.278457 19.0449 0 19.6619 0 20.3132V27.1347C0 29.1914 2.50611 30.2884 4.03763 28.8487L16.8467 16.9881C17.7865 16.1312 19.2135 16.1312 20.1533 16.9881Z" fill="white"/>
<path d="M51.7031 25L47.5469 9.72727H51.8324L54.1989 19.9886H54.3381L56.804 9.72727H61.0099L63.5156 19.929H63.6449L65.9716 9.72727H70.2472L66.1009 25H61.6165L58.9915 15.3949H58.8026L56.1776 25H51.7031ZM76.7425 16.1705V25H72.5067V4.63636H76.6232V12.4219H76.8022C77.1469 11.5204 77.7037 10.8144 78.4727 10.304C79.2416 9.78693 80.2061 9.52841 81.3661 9.52841C82.4267 9.52841 83.3514 9.76042 84.1403 10.2244C84.9357 10.6818 85.5522 11.3414 85.9897 12.2031C86.4338 13.0582 86.6526 14.0824 86.646 15.2756V25H82.4102V16.0312C82.4168 15.09 82.1781 14.3575 81.6942 13.8338C81.217 13.3101 80.5475 13.0483 79.6857 13.0483C79.109 13.0483 78.5986 13.1709 78.1545 13.4162C77.717 13.6615 77.3723 14.0194 77.1204 14.4901C76.8751 14.9541 76.7492 15.5142 76.7425 16.1705ZM89.9794 25V9.72727H94.2152V25H89.9794ZM92.1072 7.75852C91.4775 7.75852 90.9373 7.54972 90.4865 7.1321C90.0424 6.70786 89.8203 6.20076 89.8203 5.61079C89.8203 5.02746 90.0424 4.52699 90.4865 4.10938C90.9373 3.68513 91.4775 3.47301 92.1072 3.47301C92.737 3.47301 93.2739 3.68513 93.718 4.10938C94.1688 4.52699 94.3942 5.02746 94.3942 5.61079C94.3942 6.20076 94.1688 6.70786 93.718 7.1321C93.2739 7.54972 92.737 7.75852 92.1072 7.75852ZM105.732 9.72727V12.9091H96.5344V9.72727H105.732ZM98.6225 6.06818H102.858V20.3068C102.858 20.6979 102.918 21.0028 103.037 21.2216C103.157 21.4337 103.322 21.5829 103.534 21.669C103.753 21.7552 104.005 21.7983 104.29 21.7983C104.489 21.7983 104.688 21.7817 104.887 21.7486C105.086 21.7088 105.238 21.679 105.344 21.6591L106.01 24.8111C105.798 24.8774 105.5 24.9536 105.115 25.0398C104.731 25.1326 104.264 25.1889 103.713 25.2088C102.693 25.2486 101.798 25.1127 101.029 24.8011C100.266 24.4896 99.6732 24.0057 99.2489 23.3494C98.8247 22.6932 98.6159 21.8646 98.6225 20.8636V6.06818ZM115.287 25.2983C113.716 25.2983 112.364 24.9801 111.23 24.3438C110.104 23.7008 109.235 22.7926 108.625 21.6193C108.016 20.4394 107.711 19.044 107.711 17.4332C107.711 15.8622 108.016 14.4834 108.625 13.2969C109.235 12.1103 110.094 11.1856 111.201 10.5227C112.314 9.85985 113.62 9.52841 115.118 9.52841C116.126 9.52841 117.064 9.69081 117.932 10.0156C118.807 10.3338 119.569 10.8144 120.219 11.4574C120.875 12.1004 121.386 12.9091 121.75 13.8835C122.115 14.8513 122.297 15.9848 122.297 17.2841V18.4474H109.401V15.8224H118.31C118.31 15.2126 118.177 14.6723 117.912 14.2017C117.647 13.7311 117.279 13.3632 116.809 13.098C116.345 12.8262 115.804 12.6903 115.188 12.6903C114.545 12.6903 113.975 12.8395 113.478 13.1378C112.987 13.4295 112.603 13.8239 112.324 14.321C112.046 14.8116 111.903 15.3584 111.897 15.9616V18.4574C111.897 19.2131 112.036 19.866 112.314 20.4162C112.599 20.9664 113 21.3906 113.517 21.6889C114.034 21.9872 114.648 22.1364 115.357 22.1364C115.828 22.1364 116.258 22.0701 116.65 21.9375C117.041 21.8049 117.375 21.6061 117.654 21.3409C117.932 21.0758 118.144 20.7509 118.29 20.3665L122.208 20.625C122.009 21.5663 121.601 22.3883 120.985 23.0909C120.375 23.7869 119.586 24.3305 118.618 24.7216C117.657 25.1061 116.547 25.2983 115.287 25.2983ZM125.061 30.7273V9.72727H129.238V12.2926H129.426C129.612 11.8816 129.881 11.464 130.232 11.0398C130.59 10.6089 131.054 10.2509 131.624 9.96591C132.201 9.67424 132.917 9.52841 133.772 9.52841C134.885 9.52841 135.913 9.82008 136.854 10.4034C137.795 10.9801 138.548 11.8518 139.111 13.0185C139.675 14.1785 139.956 15.6335 139.956 17.3835C139.956 19.0871 139.681 20.5256 139.131 21.6989C138.587 22.8655 137.845 23.7505 136.904 24.3537C135.969 24.9503 134.922 25.2486 133.762 25.2486C132.94 25.2486 132.24 25.1127 131.664 24.8409C131.094 24.5691 130.626 24.2277 130.262 23.8168C129.897 23.3991 129.619 22.9782 129.426 22.554H129.297V30.7273H125.061ZM129.208 17.3636C129.208 18.2718 129.334 19.0639 129.586 19.7401C129.837 20.4162 130.202 20.9432 130.679 21.321C131.157 21.6922 131.737 21.8778 132.419 21.8778C133.109 21.8778 133.692 21.6889 134.169 21.3111C134.647 20.9266 135.008 20.3963 135.253 19.7202C135.505 19.0374 135.631 18.2519 135.631 17.3636C135.631 16.482 135.508 15.7064 135.263 15.0369C135.018 14.3674 134.657 13.8437 134.179 13.4659C133.702 13.0881 133.115 12.8991 132.419 12.8991C131.73 12.8991 131.147 13.0814 130.669 13.446C130.199 13.8106 129.837 14.3277 129.586 14.9972C129.334 15.6667 129.208 16.4555 129.208 17.3636ZM147.135 25.2884C146.161 25.2884 145.292 25.1193 144.53 24.7812C143.768 24.4366 143.165 23.9295 142.721 23.2599C142.283 22.5838 142.064 21.742 142.064 20.7344C142.064 19.8859 142.22 19.1733 142.532 18.5966C142.843 18.0199 143.267 17.5559 143.804 17.2045C144.341 16.8532 144.951 16.5881 145.634 16.4091C146.323 16.2301 147.046 16.1042 147.801 16.0312C148.69 15.9384 149.406 15.8523 149.949 15.7727C150.493 15.6866 150.887 15.5606 151.132 15.3949C151.378 15.2292 151.5 14.9839 151.5 14.6591V14.5994C151.5 13.9697 151.301 13.4825 150.904 13.1378C150.513 12.7931 149.956 12.6207 149.233 12.6207C148.471 12.6207 147.864 12.7898 147.414 13.1278C146.963 13.4593 146.665 13.8769 146.519 14.3807L142.601 14.0625C142.8 13.1345 143.191 12.3324 143.775 11.6562C144.358 10.9735 145.11 10.4498 146.032 10.0852C146.96 9.71401 148.033 9.52841 149.253 9.52841C150.102 9.52841 150.914 9.62784 151.689 9.8267C152.471 10.0256 153.164 10.3338 153.767 10.7514C154.377 11.169 154.858 11.706 155.209 12.3622C155.56 13.0118 155.736 13.7907 155.736 14.6989V25H151.719V22.8821H151.6C151.355 23.3594 151.026 23.7803 150.615 24.1449C150.204 24.5028 149.711 24.7846 149.134 24.9901C148.557 25.1889 147.891 25.2884 147.135 25.2884ZM148.348 22.3651C148.971 22.3651 149.522 22.2424 149.999 21.9972C150.476 21.7453 150.851 21.4072 151.123 20.983C151.394 20.5587 151.53 20.0781 151.53 19.5412V17.9205C151.398 18.0066 151.215 18.0862 150.983 18.1591C150.758 18.2254 150.503 18.2884 150.218 18.348C149.933 18.401 149.648 18.4508 149.363 18.4972C149.078 18.5369 148.819 18.5734 148.587 18.6065C148.09 18.6795 147.656 18.7955 147.284 18.9545C146.913 19.1136 146.625 19.3291 146.419 19.6009C146.214 19.866 146.111 20.1974 146.111 20.5952C146.111 21.1719 146.32 21.6127 146.738 21.9176C147.162 22.2159 147.699 22.3651 148.348 22.3651ZM165.923 25.2983C164.359 25.2983 163.013 24.9669 161.886 24.304C160.766 23.6345 159.904 22.7064 159.301 21.5199C158.704 20.3333 158.406 18.9678 158.406 17.4233C158.406 15.8589 158.708 14.4867 159.311 13.3068C159.921 12.1203 160.786 11.1955 161.906 10.5327C163.026 9.86316 164.359 9.52841 165.903 9.52841C167.235 9.52841 168.402 9.77036 169.403 10.2543C170.404 10.7382 171.196 11.4176 171.779 12.2926C172.363 13.1676 172.684 14.1951 172.744 15.375H168.747C168.634 14.6127 168.336 13.9995 167.852 13.5355C167.375 13.0649 166.748 12.8295 165.973 12.8295C165.316 12.8295 164.743 13.0085 164.252 13.3665C163.769 13.7178 163.391 14.2315 163.119 14.9077C162.847 15.5838 162.711 16.4025 162.711 17.3636C162.711 18.3381 162.844 19.1667 163.109 19.8494C163.381 20.5322 163.762 21.0526 164.252 21.4105C164.743 21.7685 165.316 21.9474 165.973 21.9474C166.457 21.9474 166.891 21.848 167.275 21.6491C167.666 21.4503 167.988 21.1619 168.24 20.7841C168.498 20.3996 168.667 19.9389 168.747 19.402H172.744C172.678 20.5687 172.359 21.5961 171.789 22.4844C171.226 23.366 170.447 24.0554 169.453 24.5526C168.458 25.0497 167.282 25.2983 165.923 25.2983ZM182.416 25.2983C180.845 25.2983 179.493 24.9801 178.359 24.3438C177.232 23.7008 176.364 22.7926 175.754 21.6193C175.144 20.4394 174.839 19.044 174.839 17.4332C174.839 15.8622 175.144 14.4834 175.754 13.2969C176.364 12.1103 177.223 11.1856 178.33 10.5227C179.443 9.85985 180.749 9.52841 182.247 9.52841C183.255 9.52841 184.193 9.69081 185.061 10.0156C185.936 10.3338 186.698 10.8144 187.348 11.4574C188.004 12.1004 188.515 12.9091 188.879 13.8835C189.244 14.8513 189.426 15.9848 189.426 17.2841V18.4474H176.53V15.8224H185.439C185.439 15.2126 185.306 14.6723 185.041 14.2017C184.776 13.7311 184.408 13.3632 183.938 13.098C183.473 12.8262 182.933 12.6903 182.317 12.6903C181.674 12.6903 181.104 12.8395 180.607 13.1378C180.116 13.4295 179.732 13.8239 179.453 14.321C179.175 14.8116 179.032 15.3584 179.026 15.9616V18.4574C179.026 19.2131 179.165 19.866 179.443 20.4162C179.728 20.9664 180.129 21.3906 180.646 21.6889C181.163 21.9872 181.777 22.1364 182.486 22.1364C182.956 22.1364 183.387 22.0701 183.778 21.9375C184.17 21.8049 184.504 21.6061 184.783 21.3409C185.061 21.0758 185.273 20.7509 185.419 20.3665L189.337 20.625C189.138 21.5663 188.73 22.3883 188.114 23.0909C187.504 23.7869 186.715 24.3305 185.747 24.7216C184.786 25.1061 183.676 25.2983 182.416 25.2983Z" fill="white"/>
</svg>
